HIERARCHY
ROOT root
{
	OFFSET 0.000000 0.000000 0.000000
	CHANNELS 6 Xposition Yposition Zposition Zrotation Yrotation Xrotation
	JOINT lhip
	{
		OFFSET 0.058581 -0.082280 -0.017664
		CHANNELS 3 Zrotation Yrotation Xrotation
		JOINT lknee
		{
			OFFSET 0.043451 -0.386469 0.008037
			CHANNELS 3 Zrotation Yrotation Xrotation
			JOINT lankle
			{
				OFFSET -0.014790 -0.426874 -0.037428
				CHANNELS 3 Zrotation Yrotation Xrotation
				JOINT ltoe
				{
					OFFSET 0.041054 -0.060286 0.122042
					CHANNELS 3 Zrotation Yrotation Xrotation
					End Site
					{
						OFFSET 0.000000 0.000000 0.000000
					}
				}
			}
		}
	}
	JOINT rhip
	{
		OFFSET -0.060310 -0.090513 -0.013543
		CHANNELS 3 Zrotation Yrotation Xrotation
		JOINT rknee
		{
			OFFSET -0.043257 -0.383688 -0.004843
			CHANNELS 3 Zrotation Yrotation Xrotation
			JOINT rankle
			{
				OFFSET 0.019056 -0.420046 -0.034562
				CHANNELS 3 Zrotation Yrotation Xrotation
				JOINT rtoe
				{
					OFFSET -0.034840 -0.062106 0.130323
					CHANNELS 3 Zrotation Yrotation Xrotation
					End Site
					{
						OFFSET 0.000000 0.000000 0.000000
					}
				}
			}
		}
	}
	JOINT lowerback
	{
		OFFSET 0.004439 0.124404 -0.038385
		CHANNELS 3 Zrotation Yrotation Xrotation
		JOINT upperback
		{
			OFFSET 0.004488 0.137956 0.026820
			CHANNELS 3 Zrotation Yrotation Xrotation
			JOINT chest
			{
				OFFSET -0.002265 0.056032 0.002855
				CHANNELS 3 Zrotation Yrotation Xrotation
				JOINT lowerneck
				{
					OFFSET -0.013390 0.211636 -0.033468
					CHANNELS 3 Zrotation Yrotation Xrotation
					JOINT upperneck
					{
						OFFSET 0.010113 0.088937 0.050410
						CHANNELS 3 Zrotation Yrotation Xrotation
						End Site
						{
							OFFSET 0.000000 0.000000 0.000000
						}
					}
				}
				JOINT lclavicle
				{
					OFFSET 0.071702 0.114000 -0.018898
					CHANNELS 3 Zrotation Yrotation Xrotation
					JOINT lshoulder
					{
						OFFSET 0.122921 0.045205 -0.019046
						CHANNELS 3 Zrotation Yrotation Xrotation
						JOINT lelbow
						{
							OFFSET 0.255332 -0.015649 -0.022946
							CHANNELS 3 Zrotation Yrotation Xrotation
							JOINT lwrist
							{
								OFFSET 0.265709 0.012698 -0.007375
								CHANNELS 3 Zrotation Yrotation Xrotation
								End Site
								{
									OFFSET 0.000000 0.000000 0.000000
								}
							}
						}
					}
				}
				JOINT rclavicle
				{
					OFFSET -0.082954 0.112472 -0.023707
					CHANNELS 3 Zrotation Yrotation Xrotation
					JOINT rshoulder
					{
						OFFSET -0.113228 0.046853 -0.008472
						CHANNELS 3 Zrotation Yrotation Xrotation
						JOINT relbow
						{
							OFFSET -0.260127 -0.014369 -0.031269
							CHANNELS 3 Zrotation Yrotation Xrotation
							JOINT rwrist
							{
								OFFSET -0.269108 0.006794 -0.006027
								CHANNELS 3 Zrotation Yrotation Xrotation
								End Site
								{
									OFFSET 0.000000 0.000000 0.000000
								}
							}
						}
					}
				}
			}
		}
	}
}
MOTION
Frames: 11
Frame Time: 0.033333
-0.029855 1.292827 1.189603 131.080276 0.750637 80.384621 0.727215 -11.447931 -3.292980 -7.758203 -29.491827 27.864581 -1.340258 1.174095 -15.249065 0.000000 -0.000000 0.000000 1.621479 1.097270 3.884806 3.653647 11.869660 16.596839 3.141053 2.431103 -11.948057 0.000000 -0.000000 0.000000 2.114431 6.076499 14.016872 0.458103 2.147663 1.360724 -1.521051 1.564358 3.444196 4.716092 -1.485338 11.115322 -0.217617 -7.213612 18.072385 -29.750199 5.495267 2.155309 -58.204744 -2.311794 10.462987 10.991050 -20.380856 1.643030 -0.619665 -1.773748 -5.763789 27.117170 2.965281 3.094869 53.675652 7.695270 12.603702 -15.041443 25.943214 -7.838442 4.448978 4.007518 -8.908606 
-0.031695 1.299498 1.187893 126.184107 0.732598 80.834283 1.758657 -11.165512 -1.450015 -6.624608 -30.484530 22.779311 -1.305884 0.976707 -13.976025 0.000000 -0.000000 0.000000 1.284575 2.569961 2.506213 4.269132 13.693895 18.068158 3.154067 3.631276 -12.381493 0.000000 -0.000000 0.000000 1.744022 5.757834 13.017770 0.558615 2.943316 1.833844 -1.578094 2.002452 3.255745 4.899210 -0.841359 11.367639 -0.402653 -7.381337 17.682203 -29.811183 5.815690 2.133040 -57.721565 -2.131722 10.811491 10.872089 -20.758056 1.681388 -0.600485 -1.767479 -5.759686 27.111383 3.119159 3.434570 52.978929 8.022692 12.680613 -14.953148 25.752119 -7.644440 4.434575 3.924859 -8.698471 
-0.035132 1.306160 1.185580 122.338913 0.627285 81.173489 2.522005 -9.889053 -0.267103 -7.136316 -29.455795 21.248046 -0.420809 0.966609 -14.603452 0.000000 -0.000000 0.000000 0.736256 3.696176 0.775427 4.935809 14.871475 20.198433 3.651041 4.746968 -12.795404 0.000000 -0.000000 0.000000 1.048257 5.027288 12.809377 0.748527 3.188942 1.572602 -1.575184 2.054204 3.076691 5.310407 -0.365867 11.151045 -0.870239 -7.387256 17.955785 -29.727634 6.244877 2.077141 -57.017987 -2.135243 10.732731 10.487787 -21.350391 1.850906 -1.159955 -2.011814 -5.909101 27.344990 3.163153 3.148941 52.094753 8.557704 12.659978 -14.778952 24.992748 -7.605811 4.691967 3.750007 -8.044661 
-0.038810 1.313181 1.183624 119.600342 0.327374 81.113150 2.925801 -7.413167 1.753656 -6.526925 -26.829666 16.986816 0.700181 1.449358 -14.617093 0.000000 -0.000000 0.000000 0.209346 4.685917 -0.078127 5.019086 15.688096 21.612354 4.301725 5.341027 -13.332693 0.000000 -0.000000 0.000000 -0.145996 4.114378 12.663566 1.171753 2.890341 2.012925 -1.381245 1.935144 3.040277 5.608384 -0.025624 10.586807 -1.374891 -7.504100 18.080492 -29.394295 5.838896 2.374300 -56.403523 -2.718727 10.643271 9.993818 -21.982516 2.429405 -1.913215 -2.264922 -5.869650 27.659638 3.310277 2.708380 51.589559 9.306606 12.498728 -15.005257 24.214471 -8.152363 4.700546 3.657539 -7.803138 
-0.043541 1.321537 1.182733 118.057999 0.188487 81.429167 2.614153 -5.385343 3.162094 -5.551525 -25.895828 13.510392 1.413359 1.870234 -14.347214 0.000000 -0.000000 0.000000 -0.421473 5.185598 -1.202017 5.032965 15.774989 22.797021 4.683204 5.999270 -13.829891 0.000000 -0.000000 0.000000 -0.655950 2.818273 12.859394 1.391104 2.078456 1.441266 -1.439852 1.276712 2.912891 5.760717 0.162957 10.687076 -2.083017 -7.243298 17.816193 -29.198084 5.683256 2.412571 -55.321874 -3.154339 10.407098 9.682104 -22.082498 2.631754 -3.047288 -2.735498 -5.666930 27.810838 3.051086 2.233834 51.501307 9.685826 12.375702 -15.223600 23.759705 -8.988134 5.216116 3.493322 -8.026408 
-0.048449 1.329166 1.182509 117.052626 0.430390 81.545513 2.606620 -4.435034 3.948591 -5.041444 -26.526635 11.554759 1.356354 1.682980 -13.832566 0.000000 -0.000000 0.000000 -0.549281 5.499695 -1.740352 4.804982 15.766074 23.074464 4.751670 6.253163 -13.988975 0.000000 -0.000000 0.000000 -0.813400 1.505472 13.155776 1.755473 0.873519 1.303326 -1.466235 0.929228 2.696977 5.768085 0.471424 10.392737 -2.082919 -7.694917 17.787098 -28.634841 4.743915 2.694681 -54.574368 -3.712859 10.402577 9.733673 -22.054357 2.052963 -3.071957 -2.926382 -5.724570 28.018499 2.995644 2.190558 51.290183 10.031400 11.839042 -15.782588 23.639016 -10.423876 4.850003 3.626965 -8.889293 
-0.053857 1.336232 1.183219 115.640498 0.466919 81.977623 2.420159 -4.733363 3.705826 -5.389420 -25.836351 11.126116 1.421588 2.202471 -13.149375 0.000000 -0.000000 0.000000 -1.195512 5.609583 -2.761401 5.098237 15.384172 23.359514 5.206153 6.414188 -13.270720 0.000000 -0.000000 0.000000 -1.018485 1.025711 13.164837 2.085784 0.021925 0.798941 -1.331373 0.203632 2.419770 5.557756 0.786260 10.709488 -1.944349 -7.706906 18.128618 -27.934987 4.282272 3.107172 -53.872876 -4.508126 10.368792 9.934979 -22.376146 2.045896 -3.103877 -2.951986 -5.858804 28.078502 2.708451 1.691122 51.234621 9.874976 11.942871 -15.902655 23.106246 -10.491861 4.623701 3.683820 -8.982492 
-0.059427 1.342468 1.183929 113.571346 0.644344 82.111317 2.304199 -4.652946 3.951044 -5.224254 -24.575662 10.414030 1.658456 2.547919 -13.003067 0.000000 -0.000000 0.000000 -1.475629 6.053337 -3.747812 5.437193 14.704159 24.069340 5.722557 6.399514 -13.609090 0.000000 -0.000000 0.000000 -0.975742 0.805133 13.033997 2.387022 -0.169699 1.210721 -1.084502 -0.096610 2.622081 5.288115 0.809160 10.060178 -1.878020 -7.918819 17.427778 -27.529284 3.363632 2.788002 -53.107913 -5.608405 10.211066 10.444726 -22.944865 0.595161 -3.207584 -2.836459 -5.848159 28.262896 2.746355 1.687425 51.157487 9.682257 11.609505 -16.829343 23.535514 -12.289255 4.928277 3.511157 -9.008214 
-0.064303 1.347570 1.184517 110.819497 0.894545 81.895861 2.272301 -3.824195 4.645785 -4.949857 -23.764139 9.726135 1.917020 3.327946 -13.094459 0.000000 -0.000000 0.000000 -1.685969 5.026821 -5.256557 5.973554 12.377498 26.066392 7.558923 5.331276 -15.176534 0.000000 -0.000000 0.000000 -0.875546 0.569416 13.510374 2.566036 -0.097516 1.295857 -0.832304 0.115372 2.498132 5.104562 1.242958 9.623547 -1.984026 -7.881302 17.395078 -27.028428 2.527494 2.857593 -52.208299 -6.304340 9.738329 11.151145 -24.006942 -0.887721 -2.208024 -2.690156 -6.029706 28.261547 3.554671 2.211911 50.806815 9.202070 11.454749 -16.631534 23.240698 -12.483934 4.965552 3.237125 -8.955914 
-0.069362 1.351623 1.184669 107.738961 0.944627 81.694129 2.281151 -2.714935 5.387290 -4.740143 -22.509967 8.799535 2.102600 3.734186 -12.969447 0.000000 -0.000000 0.000000 -2.034663 3.174174 -7.069785 6.018010 7.684429 28.346939 8.676302 3.207142 -16.461217 0.000000 -0.000000 0.000000 -0.770948 0.483289 14.241526 2.520763 0.248645 1.043901 -0.525356 0.102950 2.650566 4.943411 1.566488 9.176936 -2.422200 -7.346559 17.336186 -26.856119 2.366179 2.590388 -51.049135 -7.333080 8.682654 11.883516 -25.275399 -3.403223 -0.975662 -3.088375 -6.987036 28.403889 4.214332 2.326248 50.565465 8.960422 11.407664 -16.184604 22.753933 -12.922646 5.090821 3.300618 -8.213033 
-0.072074 1.354819 1.184344 104.767955 0.881621 81.368138 2.170193 -2.066625 6.214724 -4.673928 -21.308339 8.202261 2.390272 4.212957 -12.940937 0.000000 -0.000000 0.000000 -2.073333 0.873355 -8.394103 5.500418 2.785283 31.295662 8.170465 0.045977 -17.840137 0.000000 -0.000000 0.000000 -0.731197 0.478910 14.712224 2.347784 0.584685 0.798959 -0.328095 0.284122 2.700834 4.746220 1.780999 9.255653 -2.551204 -6.712692 17.583935 -26.304192 2.317589 2.379924 -50.103811 -8.102892 7.522289 12.914478 -26.507826 -5.400824 -0.792624 -3.199828 -8.686121 28.382033 4.463922 2.465137 51.056795 8.721116 11.262394 -16.052488 22.134961 -13.064112 5.488697 2.814534 -7.963541 
